<svg width="127" height="80" viewBox="0 0 127 80" fill="none" xmlns="http://www.w3.org/2000/svg">
<path d="M0 64.4031V63.236H1.6418V51.2997H0V50.1326H7.30866C8.73862 50.1326 9.85081 50.5039 10.6982 51.2466C11.5456 51.9893 11.9693 52.9973 11.9693 54.2705C11.9693 55.5437 11.5456 56.5517 10.6982 57.2944C9.85081 58.0371 8.73862 58.4084 7.30866 58.4084H4.9254V63.1299H6.9909V64.297H0V64.4031ZM4.9254 57.3474H5.87871C6.62017 57.3474 7.20274 57.0822 7.67939 56.4986C8.10308 55.9681 8.36789 55.2254 8.36789 54.2705C8.36789 53.3686 8.15604 52.6259 7.73235 52.0954C7.30866 51.5649 6.67313 51.2997 5.93167 51.2997H4.9254V57.3474Z" fill="#656868"/>
<path d="M23.9384 57.4535C24.468 57.5596 24.8917 57.7188 25.2095 58.0371C25.5802 58.3554 25.845 58.7267 26.1098 59.3103L27.9635 63.2891H29.2875V64.4562H25.1035L23.0381 60.1591C22.6673 59.2572 22.2966 58.7267 22.0318 58.4615C21.767 58.1962 21.3963 58.0901 20.8666 58.0901H20.337V63.2891H21.9788V64.4562H15.4116V63.2891H17.0534V51.2997H15.4116V50.1326H22.7203C24.2032 50.1326 25.3683 50.4509 26.1628 51.1405C26.9572 51.8302 27.3809 52.732 27.3809 53.9522C27.3809 54.9602 27.1161 55.7029 26.5335 56.2864C25.9509 56.923 25.1035 57.2944 23.9384 57.4535ZM20.39 56.87H21.5022C22.2966 56.87 22.9321 56.6047 23.3558 56.1273C23.7795 55.6498 23.9914 54.9602 23.9914 54.0583C23.9914 53.1564 23.7795 52.4668 23.3558 51.9893C22.9321 51.5119 22.2966 51.2997 21.5022 51.2997H20.39V56.87Z" fill="#656868"/>
<path d="M38.8735 64.6684C36.7021 64.6684 35.0073 64.0318 33.7892 62.7055C32.5711 61.3793 31.9355 59.5756 31.9355 57.2944C31.9355 55.0132 32.5711 53.2095 33.7892 51.8833C35.0073 50.557 36.7021 49.9204 38.8735 49.9204C41.0449 49.9204 42.7397 50.557 43.9578 51.8833C45.1759 53.2095 45.8114 55.0132 45.8114 57.2944C45.8114 59.5756 45.1759 61.3793 43.9578 62.7055C42.7397 64.0318 41.0449 64.6684 38.8735 64.6684ZM38.8735 63.5013C39.9857 63.5013 40.7801 62.9708 41.3097 61.9628C41.8393 60.9549 42.1041 59.3634 42.1041 57.2944C42.1041 55.1724 41.8393 53.6339 41.3097 52.5729C40.7801 51.565 39.9857 51.0345 38.8735 51.0345C37.7613 51.0345 36.9669 51.565 36.4373 52.5729C35.9076 53.5809 35.6428 55.1724 35.6428 57.2414C35.6428 59.3103 35.9076 60.9018 36.4373 61.9098C37.0198 63.0238 37.8143 63.5013 38.8735 63.5013Z" fill="#656868"/>
<path d="M61.1704 54.6419C60.9056 53.3687 60.4819 52.4668 59.8993 51.8833C59.3167 51.2997 58.4693 51.0345 57.3572 51.0345C56.0331 51.0345 55.0798 51.5119 54.4443 52.5199C53.8087 53.5278 53.491 55.1193 53.491 57.2414C53.491 59.3634 53.8087 60.9549 54.3913 61.9628C54.9739 62.9708 55.9272 63.5013 57.1453 63.5013C57.622 63.5013 58.0456 63.4482 58.4693 63.3421C58.893 63.236 59.2638 63.0238 59.5815 62.8116V58.8859H58.0456V57.7188H62.6533V63.183C61.7 63.6604 60.7467 64.0318 59.7934 64.2971C58.8401 64.5623 57.8338 64.6684 56.8805 64.6684C54.7091 64.6684 52.9614 64.0318 51.6903 62.7055C50.4192 61.3793 49.7837 59.5756 49.7837 57.2944C49.7837 55.0132 50.4192 53.2095 51.6903 51.8833C52.9614 50.557 54.6561 49.9204 56.8805 49.9204C57.7808 49.9204 58.6812 50.0265 59.5815 50.2387C60.4819 50.4509 61.3822 50.7692 62.2296 51.1406V54.6419H61.1704Z" fill="#656868"/>
<path d="M75.6288 57.4535C76.1584 57.5596 76.5821 57.7188 76.8999 58.0371C77.2706 58.3554 77.5354 58.7267 77.8002 59.3103L79.6539 63.2891H80.9779V64.4562H76.794L74.7285 60.1591C74.3578 59.2572 73.987 58.7267 73.7222 58.4615C73.4574 58.1962 73.0867 58.0901 72.5571 58.0901H72.0275V63.2891H73.6693V64.4562H67.1021V63.2891H68.7439V51.2997H67.1021V50.1326H74.4107C75.8936 50.1326 77.0588 50.4509 77.8532 51.1405C78.6476 51.8302 79.0713 52.732 79.0713 53.9522C79.0713 54.9602 78.8065 55.7029 78.2239 56.2864C77.6414 56.923 76.741 57.2944 75.6288 57.4535ZM72.0275 56.87H73.1397C73.9341 56.87 74.5696 56.6047 74.9933 56.1273C75.417 55.6498 75.6288 54.9602 75.6288 54.0583C75.6288 53.1564 75.417 52.4668 74.9933 51.9893C74.5696 51.5119 73.9341 51.2997 73.1397 51.2997H72.0275V56.87Z" fill="#656868"/>
<path d="M84.6323 64.4031V63.236H86.2741V51.2997H84.6323V50.1326H96.125V53.4747H94.9598V51.4588H89.5577V56.0212H92.8943V54.2174H94.0595V59.1511H92.8943V57.3474H89.5577V63.1299H95.1187V61.0609H96.2838V64.4031H84.6323Z" fill="#656868"/>
<path d="M100.944 63.7135V60.3182H102.056C102.215 61.3793 102.639 62.175 103.222 62.7055C103.857 63.236 104.705 63.5013 105.764 63.5013C106.664 63.5013 107.3 63.2891 107.776 62.9177C108.253 62.5464 108.465 62.0159 108.465 61.2732C108.465 60.6896 108.306 60.2652 107.988 59.9469C107.67 59.6286 107.035 59.3103 106.029 59.045L104.122 58.5145C102.851 58.1432 102.003 57.6657 101.474 57.0291C100.944 56.3925 100.732 55.4907 100.732 54.3235C100.732 52.8912 101.156 51.8302 102.003 51.0344C102.851 50.2387 104.016 49.8673 105.552 49.8673C106.293 49.8673 107.088 49.9204 107.882 50.0795C108.677 50.2387 109.524 50.4509 110.424 50.7161V53.8461H109.312C109.153 52.8912 108.783 52.1485 108.2 51.671C107.617 51.1936 106.823 50.9814 105.817 50.9814C104.969 50.9814 104.334 51.1405 103.91 51.4588C103.486 51.7771 103.275 52.2546 103.275 52.9442C103.275 53.5278 103.433 54.0052 103.698 54.2705C104.016 54.5888 104.705 54.9071 105.87 55.2254L107.776 55.7559C108.941 56.0742 109.842 56.6047 110.371 57.2944C110.901 57.984 111.166 58.9389 111.166 60.1591C111.166 61.5915 110.742 62.7055 109.842 63.4482C108.941 64.1909 107.617 64.5623 105.923 64.5623C105.075 64.5623 104.281 64.5092 103.433 64.3501C102.639 64.297 101.792 64.0318 100.944 63.7135Z" fill="#656868"/>
<path d="M115.879 63.7135V60.3182H116.992C117.15 61.3793 117.574 62.175 118.157 62.7055C118.792 63.236 119.64 63.5013 120.699 63.5013C121.599 63.5013 122.235 63.2891 122.711 62.9177C123.188 62.5464 123.4 62.0159 123.4 61.2732C123.4 60.6896 123.241 60.2652 122.923 59.9469C122.605 59.6286 121.97 59.3103 120.964 59.045L119.057 58.5145C117.786 58.1432 116.939 57.6657 116.409 57.0291C115.879 56.3925 115.667 55.4907 115.667 54.3235C115.667 52.8912 116.091 51.8302 116.939 51.0344C117.786 50.2387 118.951 49.8673 120.487 49.8673C121.228 49.8673 122.023 49.9204 122.817 50.0795C123.612 50.2387 124.459 50.4509 125.359 50.7161V53.8461H124.247C124.088 52.8912 123.718 52.1485 123.135 51.671C122.552 51.1936 121.758 50.9814 120.752 50.9814C119.904 50.9814 119.269 51.1405 118.845 51.4588C118.421 51.7771 118.21 52.2546 118.21 52.9442C118.21 53.5278 118.369 54.0052 118.633 54.2705C118.951 54.5888 119.64 54.9071 120.805 55.2254L122.711 55.7559C123.876 56.0742 124.777 56.6047 125.306 57.2944C125.836 57.984 126.101 58.9389 126.101 60.1591C126.101 61.5915 125.677 62.7055 124.777 63.4482C123.876 64.1909 122.552 64.5623 120.858 64.5623C120.01 64.5623 119.216 64.5092 118.369 64.3501C117.574 64.297 116.727 64.0318 115.879 63.7135Z" fill="#656868"/>
<path d="M30.8762 80C29.9229 80 29.2874 79.7347 28.6519 79.1512L29.1285 78.6737C29.6581 79.2042 30.1877 79.3634 30.8762 79.3634C31.8295 79.3634 32.4121 78.939 32.4121 78.1432C32.4121 77.7719 32.3062 77.5066 32.0943 77.3475C31.8825 77.1883 31.7236 77.0822 31.247 77.0292L30.5055 76.9231C29.9759 76.817 29.6052 76.7109 29.3404 76.4456C29.0226 76.1273 28.8637 75.756 28.8637 75.2255C28.8637 74.1114 29.6581 73.4218 30.9292 73.4218C31.7766 73.4218 32.3062 73.634 32.8358 74.1114L32.4121 74.5358C32.0414 74.1645 31.5647 73.9523 30.8762 73.9523C29.9759 73.9523 29.4992 74.4297 29.4992 75.1724C29.4992 75.4907 29.6052 75.756 29.817 75.9151C30.0288 76.0743 30.3466 76.1804 30.6644 76.2334L31.4058 76.3395C31.9884 76.4456 32.3062 76.5517 32.571 76.817C32.9417 77.1353 33.1006 77.5597 33.1006 78.0902C33.1006 79.3103 32.2003 80 30.8762 80Z" fill="#656868"/>
<path d="M39.1914 79.3634C38.7677 79.7878 38.2381 80 37.6025 80C36.914 80 36.3844 79.7878 35.9607 79.3634C35.3252 78.7268 35.3252 78.1963 35.3252 76.7109C35.3252 75.2255 35.3782 74.6419 35.9607 74.0584C36.3844 73.634 36.914 73.4218 37.6025 73.4218C38.291 73.4218 38.8206 73.634 39.1914 74.0584C39.8269 74.695 39.8269 75.2255 39.8269 76.7109C39.8269 78.1963 39.7739 78.7798 39.1914 79.3634ZM38.6617 74.4828C38.344 74.1645 37.9733 74.0053 37.5496 74.0053C37.1259 74.0053 36.7022 74.1645 36.4374 74.4828C36.0137 74.9072 35.9607 75.3846 35.9607 76.7109C35.9607 78.0371 36.0137 78.5146 36.4374 78.939C36.7551 79.2573 37.1259 79.4164 37.5496 79.4164C37.9733 79.4164 38.344 79.2573 38.6617 78.939C39.0854 78.5146 39.1384 78.0371 39.1384 76.7109C39.1384 75.3846 39.0854 74.9072 38.6617 74.4828Z" fill="#656868"/>
<path d="M43.0044 74.0584V76.4456H45.8643V77.0822H43.0044V79.9469H42.3159V73.4218H46.341V74.0584H43.0044Z" fill="#656868"/>
<path d="M52.0078 79.9469L51.4782 78.4615H48.6182L48.0886 79.9469H47.3472L49.7304 73.4218H50.313L52.6963 79.9469H52.0078ZM50.1012 74.4297L48.8831 77.878H51.3193L50.1012 74.4297Z" fill="#656868"/>
<path d="M56.7214 80C55.7681 80 55.1326 79.7347 54.4971 79.1512L54.9737 78.6737C55.5033 79.2042 56.0329 79.3634 56.7214 79.3634C57.6747 79.3634 58.2573 78.939 58.2573 78.1432C58.2573 77.7719 58.1514 77.5066 57.9396 77.3475C57.7277 77.1883 57.5688 77.0822 57.0922 77.0292L56.3507 76.9231C55.8211 76.817 55.4504 76.7109 55.1856 76.4456C54.8678 76.1273 54.7089 75.756 54.7089 75.2255C54.7089 74.1114 55.5033 73.4218 56.7744 73.4218C57.6218 73.4218 58.1514 73.634 58.681 74.1114L58.2573 74.5358C57.8866 74.1645 57.4099 73.9523 56.7214 73.9523C55.8211 73.9523 55.3444 74.4297 55.3444 75.1724C55.3444 75.4907 55.4504 75.756 55.6622 75.9151C55.8741 76.0743 56.1918 76.1804 56.5096 76.2334L57.2511 76.3395C57.8336 76.4456 58.1514 76.5517 58.4162 76.817C58.7869 77.1353 58.9458 77.5597 58.9458 78.0902C58.9458 79.3103 58.0455 80 56.7214 80Z" fill="#656868"/>
<path d="M68.7963 79.947L68.2138 79.2573C67.949 79.5226 67.3134 80 66.3072 80C65.0361 80 64.2417 79.2573 64.2417 78.0902C64.2417 77.1353 64.9302 76.6048 65.6716 76.1273C65.3539 75.756 64.9832 75.2785 64.9832 74.695C64.9832 73.8992 65.5657 73.3157 66.4131 73.3157C67.2075 73.3157 67.8431 73.8992 67.8431 74.695C67.8431 75.2255 67.5253 75.5968 67.1016 75.8621L66.6249 76.1804L68.2667 78.1963C68.5315 77.7719 68.6375 77.4536 68.6375 76.7109H69.273C69.273 77.5067 69.1141 78.1963 68.6904 78.7268L69.6967 79.947H68.7963ZM66.0424 76.6048C65.5128 76.9762 64.9302 77.3475 64.9302 78.0902C64.9302 78.886 65.5128 79.3634 66.3072 79.3634C66.7838 79.3634 67.2605 79.2573 67.8431 78.7268L66.0424 76.6048ZM66.3601 74.0053C65.9365 74.0053 65.6187 74.3236 65.6187 74.748C65.6187 75.0663 65.7776 75.2785 66.2013 75.809L66.572 75.5968C66.8898 75.3846 67.1546 75.1724 67.1546 74.8011C67.1546 74.3236 66.8368 74.0053 66.3601 74.0053Z" fill="#656868"/>
<path d="M77.8527 79.9469H75.3105V73.4218H77.7468C78.859 73.4218 79.6534 74.0584 79.6534 75.1724C79.6534 75.8621 79.2297 76.3926 78.7001 76.6048C79.3356 76.817 79.7593 77.3475 79.7593 78.1432C79.7593 79.3103 78.9649 79.9469 77.8527 79.9469ZM77.6938 74.0584H75.999V76.3395H77.6938C78.4353 76.3395 78.9649 75.9682 78.9649 75.2255C78.9649 74.4297 78.4353 74.0584 77.6938 74.0584ZM77.7997 76.9231H76.052V79.3103H77.7997C78.5941 79.3103 79.1238 78.8329 79.1238 78.0902C79.0708 77.4005 78.5941 76.9231 77.7997 76.9231Z" fill="#656868"/>
<path d="M82.1958 79.9469V73.4218H86.2209V74.0584H82.8843V76.3395H85.7442V76.9761H82.8843V79.3103H86.2209V79.9469H82.1958Z" fill="#656868"/>
<path d="M92.4704 79.2573C92.0467 79.7347 91.5171 79.9469 90.7757 79.9469H88.5513V73.4218H90.7757C91.5171 73.4218 92.0467 73.634 92.4704 74.1114C93.053 74.748 93.053 75.7029 93.053 76.6578C93.053 77.6127 93.053 78.6737 92.4704 79.2573ZM91.9408 74.5358C91.623 74.1645 91.1464 74.0584 90.6697 74.0584H89.2398V79.3103H90.6697C91.1464 79.3103 91.623 79.2042 91.9408 78.8329C92.3645 78.4085 92.3645 77.5597 92.3645 76.6578C92.3645 75.756 92.3645 75.0133 91.9408 74.5358Z" fill="#656868"/>
<path d="M97.3425 80C96.3892 80 95.7537 79.7347 95.1182 79.1512L95.5948 78.6737C96.1244 79.2042 96.654 79.3634 97.3425 79.3634C98.2958 79.3634 98.8784 78.939 98.8784 78.1432C98.8784 77.7719 98.7725 77.5066 98.5606 77.3475C98.3488 77.1883 98.1899 77.0822 97.7133 77.0292L96.9718 76.9231C96.4422 76.817 96.0715 76.7109 95.8067 76.4456C95.4889 76.1273 95.33 75.756 95.33 75.2255C95.33 74.1114 96.1244 73.4218 97.3955 73.4218C98.2429 73.4218 98.7725 73.634 99.3021 74.1114L98.8784 74.5358C98.5077 74.1645 98.031 73.9523 97.3425 73.9523C96.4422 73.9523 95.9655 74.4297 95.9655 75.1724C95.9655 75.4907 96.0715 75.756 96.2833 75.9151C96.4952 76.0743 96.8129 76.1804 97.1307 76.2334L97.8721 76.3395C98.4547 76.4456 98.7725 76.5517 99.0373 76.817C99.408 77.1353 99.5669 77.5597 99.5669 78.0902C99.5669 79.3103 98.6666 80 97.3425 80Z" fill="#656868"/>
<path d="M34.7956 15.0663C34.5307 15.0663 34.3189 14.9072 34.2659 14.6419L34.16 13.9523C34.1071 13.687 34.3189 13.3687 34.5837 13.3157C34.8485 13.2626 35.1663 13.4748 35.2192 13.7401L35.3252 14.4297C35.3781 14.695 35.1663 15.0133 34.9015 15.0663C34.8485 15.0663 34.8485 15.0663 34.7956 15.0663Z" fill="#FDC689"/>
<path d="M39.0326 37.931C38.7678 37.931 38.5559 37.7719 38.503 37.5066L38.2382 36.1803C38.1852 35.9151 38.3971 35.5968 38.6619 35.5437C38.9267 35.4907 39.2444 35.7029 39.2974 35.9681L39.5622 37.2944C39.6152 37.5597 39.4033 37.878 39.1385 37.931C39.0856 37.931 39.0856 37.931 39.0326 37.931ZM38.45 34.6419C38.1852 34.6419 37.9734 34.4827 37.9204 34.2175L37.6556 32.8912C37.6026 32.626 37.8145 32.3077 38.0793 32.2546C38.3441 32.2016 38.6619 32.4138 38.7148 32.679L38.9796 34.0053C39.0326 34.2705 38.8208 34.5888 38.5559 34.6419C38.503 34.6419 38.45 34.6419 38.45 34.6419ZM37.8145 31.4058C37.5497 31.4058 37.3378 31.2467 37.2849 30.9814L37.073 29.6551C37.0201 29.3899 37.2319 29.0716 37.4967 29.0185C37.7615 28.9655 38.0793 29.1777 38.1323 29.4429L38.3971 30.7692C38.45 31.0345 38.2382 31.3528 37.9734 31.4058C37.8674 31.4058 37.8674 31.4058 37.8145 31.4058ZM37.2319 28.1167C36.9671 28.1167 36.7553 27.9575 36.7023 27.6923L36.4375 26.366C36.3845 26.1008 36.5964 25.7825 36.8612 25.7294C37.126 25.6764 37.4438 25.8886 37.4967 26.1538L37.7615 27.4801C37.8145 27.7453 37.6026 28.0636 37.3378 28.1167C37.2849 28.1167 37.2319 28.1167 37.2319 28.1167ZM36.5964 24.8806C36.3316 24.8806 36.1197 24.7215 36.0668 24.4562L35.802 23.1299C35.749 22.8647 35.9608 22.5464 36.2257 22.4933C36.4905 22.4403 36.8082 22.6525 36.8612 22.9177L37.126 24.244C37.179 24.5093 36.9671 24.8276 36.7023 24.8806C36.6493 24.8806 36.6493 24.8806 36.5964 24.8806ZM36.0138 21.5915C35.749 21.5915 35.5372 21.4323 35.4842 21.1671L35.2194 19.8408C35.1664 19.5756 35.3783 19.2573 35.6431 19.2042C35.9079 19.1512 36.2257 19.3634 36.2786 19.6286L36.5434 20.9549C36.5964 21.2201 36.3845 21.5384 36.1197 21.5915C36.0668 21.5915 36.0138 21.5915 36.0138 21.5915ZM35.3783 18.3554C35.1135 18.3554 34.9016 18.1963 34.8487 17.931L34.5839 16.6047C34.5309 16.3395 34.7427 16.0212 35.0075 15.9681C35.2723 15.9151 35.5901 16.1273 35.6431 16.3925L35.9079 17.7188C35.9608 17.9841 35.749 18.3024 35.4842 18.3554C35.4842 18.3554 35.4312 18.3554 35.3783 18.3554Z" fill="#FDC689"/>
<path d="M39.5089 40.5836C39.2441 40.5836 39.0323 40.4244 38.9793 40.1592L38.8734 39.4695C38.8204 39.2042 39.0323 38.8859 39.2971 38.8329C39.5619 38.7798 39.8797 38.992 39.9326 39.2573L40.0386 39.947C40.0915 40.2122 39.8797 40.5305 39.6149 40.5836C39.5619 40.5836 39.5619 40.5836 39.5089 40.5836Z" fill="#FDC689"/>
<path d="M94.1652 15.0663C94.1123 15.0663 94.1123 15.0663 94.0593 15.0663C93.7945 15.0133 93.5826 14.748 93.6356 14.4297L93.7415 13.7401C93.7945 13.4748 94.0593 13.2626 94.3771 13.3157C94.6419 13.3687 94.8538 13.634 94.8008 13.9523L94.6949 14.6419C94.6419 14.9072 94.4301 15.0663 94.1652 15.0663Z" fill="#FDC689"/>
<path d="M89.9284 37.931C89.8754 37.931 89.8754 37.931 89.8225 37.931C89.5577 37.878 89.3458 37.6127 89.3988 37.2944L89.6636 35.9681C89.7166 35.7029 89.9814 35.4907 90.2991 35.5437C90.5639 35.5968 90.7758 35.862 90.7228 36.1803L90.458 37.5066C90.4051 37.7188 90.1932 37.931 89.9284 37.931ZM90.5639 34.6419C90.511 34.6419 90.511 34.6419 90.458 34.6419C90.1932 34.5888 89.9814 34.3236 90.0343 34.0053L90.2991 32.679C90.3521 32.4138 90.6169 32.2016 90.9347 32.2546C91.1995 32.3077 91.4113 32.5729 91.3584 32.8912L91.0936 34.2175C90.9876 34.4827 90.7758 34.6419 90.5639 34.6419ZM91.1465 31.4058C91.0936 31.4058 91.0935 31.4058 91.0406 31.4058C90.7758 31.3528 90.5639 31.0875 90.6169 30.7692L90.8817 29.4429C90.9347 29.1777 91.1995 28.9655 91.5172 29.0185C91.782 29.0716 91.9939 29.3368 91.9409 29.6551L91.6761 30.9814C91.6232 31.1936 91.4113 31.4058 91.1465 31.4058ZM91.7291 28.1167C91.6761 28.1167 91.6761 28.1167 91.6232 28.1167C91.3584 28.0636 91.1465 27.7984 91.1995 27.4801L91.4643 26.1538C91.5172 25.8886 91.782 25.6764 92.0998 25.7294C92.3646 25.7825 92.5765 26.0477 92.5235 26.366L92.2587 27.6923C92.2057 27.9575 91.9939 28.1167 91.7291 28.1167ZM92.3646 24.8806C92.3117 24.8806 92.3117 24.8806 92.2587 24.8806C91.9939 24.8276 91.782 24.5623 91.835 24.244L92.0998 22.9177C92.1528 22.6525 92.4176 22.4403 92.7354 22.4933C93.0002 22.5464 93.212 22.8116 93.159 23.1299L92.8942 24.4562C92.8413 24.6684 92.6294 24.8806 92.3646 24.8806ZM92.9472 21.5915C92.8942 21.5915 92.8942 21.5915 92.8413 21.5915C92.5765 21.5384 92.3646 21.2732 92.4176 20.9549L92.6824 19.6286C92.7353 19.3634 93.0002 19.1512 93.3179 19.2042C93.5827 19.2573 93.7946 19.5225 93.7416 19.8408L93.4768 21.1671C93.4238 21.4323 93.212 21.5915 92.9472 21.5915ZM93.5827 18.3554C93.5298 18.3554 93.5298 18.3554 93.4768 18.3554C93.212 18.3024 93.0002 18.0371 93.0531 17.7188L93.3179 16.3925C93.3709 16.1273 93.6357 15.9151 93.9535 15.9681C94.2183 16.0212 94.4301 16.2864 94.3771 16.6047L94.1123 17.931C94.0594 18.1432 93.7946 18.3554 93.5827 18.3554Z" fill="#FDC689"/>
<path d="M89.4519 40.5836C89.3989 40.5836 89.3989 40.5836 89.3459 40.5836C89.0811 40.5305 88.8693 40.2653 88.9222 39.947L89.0282 39.2573C89.0811 38.992 89.3459 38.7798 89.6637 38.8329C89.9285 38.8859 90.1404 39.1512 90.0874 39.4695L89.9815 40.1592C89.9285 40.3714 89.7167 40.5836 89.4519 40.5836Z" fill="#FDC689"/>
<path d="M29.5524 33.2626C29.2876 33.2626 29.0758 33.0504 29.0228 32.8382C28.9699 32.5729 29.1817 32.3076 29.4465 32.2546C29.9232 32.2015 30.3469 32.0954 30.8235 32.0424C31.0883 31.9893 31.3531 32.2015 31.4061 32.4668C31.459 32.7321 31.2472 32.9973 30.9824 33.0504C30.5057 33.1034 30.082 33.1565 29.6054 33.2626H29.5524ZM99.4614 33.2626H99.4084V32.7321L99.5144 32.2015L99.4084 32.7321L99.5144 32.2015C99.7792 32.2546 99.991 32.5199 99.991 32.7851C99.9381 33.0504 99.7262 33.2626 99.4614 33.2626ZM97.343 32.9443H97.29C96.8133 32.8912 96.3897 32.8382 95.913 32.7851C95.6482 32.7321 95.4363 32.4668 95.4363 32.2015C95.4893 31.9363 95.7541 31.7241 96.0189 31.7241C96.4956 31.7771 96.9722 31.8302 97.3959 31.9363C97.6607 31.9893 97.8726 32.2546 97.8196 32.5199C97.8196 32.7851 97.6078 32.9443 97.343 32.9443ZM32.9949 32.7851C32.7301 32.7851 32.5183 32.5729 32.4653 32.3076C32.4123 32.0424 32.6242 31.7771 32.942 31.7241C33.4186 31.671 33.8953 31.618 34.319 31.5649C34.5838 31.5119 34.8486 31.7241 34.9015 32.0424C34.9545 32.3076 34.7426 32.5729 34.4249 32.626C33.9482 32.679 33.5245 32.7321 33.0479 32.7851C33.0479 32.7851 33.0479 32.7851 32.9949 32.7851ZM93.8475 32.5199H93.7945C93.3179 32.4668 92.8942 32.4137 92.4176 32.3607C92.1527 32.3076 91.9409 32.0424 91.9409 31.7771C91.9939 31.5119 92.2057 31.2997 92.5235 31.2997C93.0001 31.3527 93.4768 31.4058 93.9005 31.4588C94.1653 31.5119 94.3771 31.7771 94.3771 32.0424C94.3771 32.3076 94.1123 32.5199 93.8475 32.5199ZM36.4904 32.3607C36.2256 32.3607 36.0137 32.1485 35.9608 31.8832C35.9078 31.618 36.1196 31.3527 36.4374 31.2997C36.9141 31.2466 37.3907 31.1936 37.8144 31.1405C38.0792 31.0875 38.344 31.2997 38.397 31.618C38.4499 31.8832 38.2381 32.1485 37.9203 32.2015C37.4437 32.2546 36.967 32.3076 36.5433 32.3607H36.4904ZM90.405 32.0954H90.3521C89.8754 32.0424 89.4517 31.9893 88.9751 31.9363C88.7103 31.8832 88.4984 31.671 88.4984 31.3527C88.5514 31.0875 88.7632 30.8753 89.081 30.8753C89.5576 30.9283 90.0343 30.9814 90.458 31.0344C90.7228 31.0875 90.9346 31.2997 90.9346 31.618C90.8817 31.9363 90.6698 32.0954 90.405 32.0954ZM39.9858 31.9893C39.721 31.9893 39.5092 31.7771 39.4562 31.5119C39.4032 31.2466 39.6151 30.9814 39.9329 30.9283L41.3099 30.7692C41.5747 30.7692 41.8395 30.9814 41.8924 31.2466C41.9454 31.5119 41.7335 31.7771 41.4158 31.8302L39.9858 31.9893C39.9858 31.9893 40.0388 31.9893 39.9858 31.9893ZM86.9096 31.7771C86.8566 31.7771 86.8566 31.7771 86.9096 31.7771C86.38 31.7241 85.9563 31.671 85.4796 31.671C85.2148 31.671 84.95 31.4058 85.003 31.0875C85.003 30.8222 85.2678 30.61 85.5855 30.61C86.0622 30.6631 86.5388 30.6631 86.9625 30.7161C87.2273 30.7161 87.4392 30.9814 87.4392 31.2997C87.3862 31.5649 87.1744 31.7771 86.9096 31.7771ZM43.4813 31.671C43.2165 31.671 43.0046 31.4588 42.9517 31.1936C42.9517 30.9283 43.1635 30.6631 43.4283 30.61L44.8053 30.5039C45.0701 30.5039 45.3349 30.7161 45.3879 30.9814C45.3879 31.2466 45.176 31.5119 44.9112 31.5649L43.4813 31.671ZM83.4141 31.5119C83.3612 31.5119 83.3612 31.5119 83.4141 31.5119L81.9842 31.4058C81.7194 31.4058 81.4545 31.1405 81.5075 30.8222C81.5075 30.557 81.7723 30.2917 82.0901 30.3448L83.52 30.4509C83.7849 30.4509 84.0497 30.7161 83.9967 31.0344C83.8908 31.2997 83.6789 31.5119 83.4141 31.5119ZM46.9767 31.4058C46.7119 31.4058 46.4471 31.1936 46.4471 30.9283C46.4471 30.6631 46.6589 30.3978 46.9238 30.3448L48.3007 30.2387C48.6185 30.1856 48.8304 30.4509 48.8833 30.7161C48.8833 30.9814 48.6715 31.2466 48.4067 31.2997L46.9767 31.4058ZM79.9187 31.2466C79.8657 31.2466 79.8657 31.2466 79.9187 31.2466L78.4887 31.1405C78.2239 31.1405 77.9591 30.8753 78.0121 30.61C78.0121 30.3448 78.2769 30.0795 78.5417 30.1326L79.9716 30.1856C80.2364 30.1856 80.5012 30.4509 80.4483 30.7161C80.3953 31.0344 80.1835 31.2466 79.9187 31.2466ZM50.4722 31.1936C50.2074 31.1936 49.9426 30.9814 49.9426 30.7161C49.9426 30.4509 50.1544 30.1856 50.4192 30.1856C50.8959 30.1856 51.3725 30.1326 51.7962 30.1326C52.061 30.1326 52.3258 30.3448 52.3258 30.61C52.3258 30.8753 52.114 31.1405 51.8492 31.1405C51.4255 31.1405 50.9488 31.1405 50.4722 31.1936ZM76.3703 31.0875C75.8936 31.0875 75.417 31.0344 74.9403 31.0344C74.6755 31.0344 74.4107 30.7692 74.4107 30.5039C74.4107 30.2387 74.6755 29.9734 74.9403 29.9734C75.417 29.9734 75.8936 30.0265 76.3703 30.0265C76.6351 30.0265 76.8999 30.2917 76.8469 30.557C76.8999 30.8753 76.688 31.0875 76.3703 31.0875ZM53.9676 31.0344C53.7028 31.0344 53.438 30.8222 53.438 30.5039C53.438 30.2387 53.6498 29.9734 53.9676 29.9734L55.3446 29.9204C55.6094 29.9204 55.8742 30.1326 55.8742 30.4509C55.8742 30.7161 55.6624 30.9814 55.3446 30.9814L53.9676 31.0344ZM72.8748 30.9283L71.4449 30.8753C71.18 30.8753 70.9152 30.61 70.9152 30.3448C70.9152 30.0795 71.18 29.8143 71.4449 29.8143L72.8748 29.8673C73.1396 29.8673 73.4044 30.1326 73.4044 30.3978C73.4044 30.7161 73.1926 30.9283 72.8748 30.9283ZM57.4631 30.8753C57.1983 30.8753 56.9335 30.6631 56.9335 30.3448C56.9335 30.0795 57.1453 29.8143 57.4631 29.8143L58.8401 29.7612C59.1578 29.7612 59.3697 29.9734 59.3697 30.2917C59.3697 30.557 59.1578 30.8222 58.8401 30.8222L57.4631 30.8753ZM69.3794 30.8753H67.9494C67.6846 30.8753 67.4198 30.61 67.4198 30.3448C67.4198 30.0795 67.6846 29.8143 67.9494 29.8143H69.3794C69.6442 29.8143 69.909 30.0795 69.909 30.3448C69.909 30.61 69.6442 30.8753 69.3794 30.8753ZM60.9585 30.8222C60.6937 30.8222 60.4289 30.61 60.4289 30.2917C60.4289 30.0265 60.6407 29.7612 60.9585 29.7612H62.3355C62.6003 29.7612 62.8651 29.9734 62.8651 30.2917C62.8651 30.557 62.6533 30.8222 62.3355 30.8222H60.9585ZM65.8839 30.8222H64.5069C64.2421 30.8222 63.9773 30.61 63.9773 30.2917C63.9773 29.9734 64.2421 29.7612 64.5599 29.7612H65.8839C66.1487 29.7612 66.4135 29.9734 66.4135 30.2917C66.4135 30.557 66.1487 30.8222 65.8839 30.8222Z" fill="#FDC689"/>
<path d="M35.6959 3.3422C35.4311 3.3422 35.2193 3.12999 35.1663 2.86474C35.1134 2.59949 35.3252 2.33424 35.643 2.28119C36.1196 2.22814 36.5963 2.17509 37.02 2.12204C37.3377 2.12204 37.6025 2.33424 37.6025 2.65254C37.6555 2.91779 37.4436 3.18305 37.1259 3.2361C36.6492 3.28915 36.1726 3.3422 35.7489 3.39525C35.7489 3.3422 35.6959 3.3422 35.6959 3.3422ZM93.106 3.3422H93.053C92.5764 3.28915 92.1527 3.2361 91.676 3.18305C91.4112 3.12999 91.1994 2.91779 91.1994 2.59949C91.2523 2.33424 91.4642 2.12204 91.782 2.12204C92.2586 2.17509 92.7353 2.22814 93.159 2.28119C93.4238 2.33424 93.6356 2.59949 93.6356 2.86474C93.5826 3.12999 93.3708 3.3422 93.106 3.3422ZM39.1914 3.02389C38.9266 3.02389 38.7147 2.81169 38.6618 2.54644C38.6088 2.28119 38.8206 2.01594 39.1384 1.96289C39.6151 1.90984 40.0917 1.85678 40.5154 1.85678C40.7802 1.85678 41.045 2.06899 41.098 2.33424C41.098 2.59949 40.8861 2.86474 40.6213 2.91779C40.1447 2.91779 39.721 2.97084 39.1914 3.02389C39.1914 3.02389 39.2443 3.02389 39.1914 3.02389ZM89.6105 2.97084C89.6105 2.97084 89.5576 2.97084 89.6105 2.97084L88.1806 2.86474C87.9158 2.86474 87.7039 2.59949 87.7039 2.28119C87.7039 2.01594 87.9687 1.75068 88.2865 1.80373L89.6635 1.90984C89.9283 1.96289 90.1402 2.17509 90.1402 2.49339C90.0872 2.75864 89.8754 2.97084 89.6105 2.97084ZM42.6868 2.70559C42.422 2.70559 42.2102 2.49339 42.1572 2.22814C42.1572 1.96289 42.3691 1.69763 42.6339 1.64458C43.1105 1.59153 43.5872 1.59153 44.0638 1.53848C44.3286 1.53848 44.5934 1.75068 44.6464 2.01594C44.6464 2.28119 44.4345 2.54644 44.1697 2.59949C43.6401 2.59949 43.1635 2.65254 42.6868 2.70559ZM86.1151 2.65254C86.1151 2.65254 86.0621 2.65254 86.1151 2.65254L84.6851 2.54644C84.4203 2.54644 84.1555 2.28119 84.2085 1.96289C84.2085 1.69763 84.4733 1.48543 84.7911 1.48543C85.2677 1.53848 85.7444 1.53848 86.1681 1.59153C86.4329 1.59153 86.6977 1.85678 86.6447 2.17509C86.5918 2.49339 86.3799 2.65254 86.1151 2.65254ZM46.1823 2.44034C45.9175 2.44034 45.6527 2.22814 45.6527 1.96289C45.6527 1.69763 45.8645 1.43238 46.1293 1.37933L47.5063 1.27323C47.8241 1.22018 48.0359 1.48543 48.0889 1.75068C48.0889 2.01594 47.877 2.28119 47.6122 2.33424L46.1823 2.44034ZM82.6197 2.44034C82.6197 2.44034 82.5667 2.44034 82.6197 2.44034C82.143 2.38729 81.6664 2.38729 81.1897 2.33424C80.9249 2.33424 80.6601 2.06899 80.713 1.75068C80.713 1.48543 80.9779 1.22018 81.2956 1.27323C81.7723 1.32628 82.2489 1.32628 82.7256 1.37933C82.9904 1.37933 83.2552 1.64458 83.2022 1.96289C83.0963 2.22814 82.8845 2.44034 82.6197 2.44034ZM49.6777 2.22814C49.4129 2.22814 49.1481 2.01594 49.1481 1.75068C49.1481 1.48543 49.3599 1.22018 49.6248 1.22018L51.0017 1.16713C51.2666 1.11408 51.5314 1.37933 51.5314 1.64458C51.5314 1.90984 51.3195 2.17509 51.0547 2.17509L49.6777 2.22814ZM79.1242 2.22814C79.1242 2.22814 79.0712 2.22814 79.1242 2.22814C78.6476 2.22814 78.1709 2.17509 77.6942 2.17509C77.4294 2.17509 77.1646 1.90984 77.2176 1.64458C77.2176 1.37933 77.4824 1.11408 77.7472 1.16713C78.2239 1.16713 78.7005 1.22018 79.1772 1.22018C79.442 1.22018 79.7068 1.48543 79.6538 1.75068C79.6009 2.01594 79.389 2.22814 79.1242 2.22814ZM53.1732 2.06899C52.9084 2.06899 52.6436 1.85678 52.6436 1.53848C52.6436 1.27323 52.8554 1.00798 53.1732 1.00798L54.5502 0.954928C54.815 0.954928 55.0798 1.16713 55.0798 1.48543C55.0798 1.75068 54.8679 2.01594 54.5502 2.01594L53.1732 2.06899ZM75.6288 2.06899C75.5758 2.06899 75.5758 2.06899 75.6288 2.06899C75.1521 2.06899 74.6755 2.01594 74.1988 2.01594C73.934 2.01594 73.6692 1.75068 73.6692 1.48543C73.6692 1.22018 73.934 1.00798 74.1988 0.954928C74.6755 0.954928 75.1521 1.00798 75.6288 1.00798C75.8936 1.00798 76.1584 1.27323 76.1584 1.53848C76.1054 1.85678 75.8936 2.06899 75.6288 2.06899ZM56.6686 1.96289C56.4038 1.96289 56.139 1.75068 56.139 1.43238C56.139 1.16713 56.3508 0.901877 56.6686 0.901877C57.1453 0.901877 57.6219 0.901877 58.0986 0.848827C58.4163 0.848827 58.6282 1.06103 58.6282 1.37933C58.6282 1.64458 58.4163 1.90984 58.0986 1.90984C57.6219 1.90984 57.1453 1.90984 56.6686 1.96289ZM72.0804 1.96289L70.6504 1.90984C70.3856 1.90984 70.1208 1.64458 70.1208 1.37933C70.1208 1.11408 70.3856 0.901877 70.6504 0.848827L72.0804 0.901877C72.3452 0.901877 72.61 1.16713 72.61 1.43238C72.61 1.69763 72.3981 1.96289 72.0804 1.96289ZM60.1641 1.85678C59.8993 1.85678 59.6344 1.64458 59.6344 1.32628C59.6344 1.06103 59.8463 0.795776 60.1641 0.795776H61.594C61.8588 0.795776 62.1236 1.00798 62.1236 1.32628C62.1236 1.59153 61.9118 1.85678 61.594 1.85678H60.1641ZM68.5849 1.85678C68.1083 1.85678 67.6316 1.85678 67.155 1.85678C66.8901 1.85678 66.6253 1.59153 66.6253 1.32628C66.6253 1.06103 66.8372 0.795776 67.155 0.795776C67.6316 0.795776 68.1083 0.795776 68.5849 0.795776C68.8497 0.795776 69.1145 1.06103 69.1145 1.32628C69.1145 1.64458 68.9027 1.85678 68.5849 1.85678ZM65.0895 1.85678H64.5069H63.7125C63.4477 1.85678 63.1829 1.64458 63.1829 1.32628C63.1829 1.06103 63.3947 0.795776 63.7125 0.795776H64.5598H65.1424C65.4072 0.795776 65.672 1.00798 65.672 1.32628C65.6191 1.59153 65.3543 1.85678 65.0895 1.85678Z" fill="#FDC689"/>
<path d="M84.6326 14.748C84.5796 14.748 84.5266 14.748 84.4737 14.748C83.8911 14.695 83.4674 14.1645 83.5733 13.5809L84.8444 4.03183C84.8974 3.76658 84.7914 3.55438 84.6326 3.34218C84.4737 3.12997 84.2618 3.02387 84.05 3.02387C77.5357 2.38727 70.9685 2.12202 64.5073 2.12202C58.046 2.12202 51.4258 2.38727 44.9645 2.97082C44.7527 2.97082 44.4879 3.12997 44.3819 3.28913C44.2231 3.50133 44.1701 3.71353 44.1701 3.97878L45.4412 13.5279C45.4941 14.1114 45.1234 14.6419 44.5408 14.695C43.9583 14.8011 43.4286 14.3767 43.3757 13.7931L42.1046 4.24403C41.9987 3.44828 42.2105 2.59947 42.7401 1.96287C43.2698 1.32626 43.9583 0.954907 44.8056 0.848807C51.3199 0.318302 57.94 0 64.5073 0C71.0745 0 77.6946 0.318302 84.2089 0.901857C85.0033 0.954907 85.7447 1.37931 86.2744 2.01592C86.804 2.65252 87.0158 3.50133 86.9099 4.29708L85.6388 13.8462C85.5859 14.3236 85.1092 14.748 84.6326 14.748Z" fill="#FDC689"/>
<path d="M54.4445 15.6498C50.0487 15.6498 46.4473 15.5968 44.0111 14.6419L42.793 14.1644L43.5344 13.0504C45.5999 10.0265 49.7839 8.1167 54.4445 8.1167C59.1051 8.1167 63.289 10.0265 65.3545 13.0504L66.096 14.1644L64.8778 14.6419C62.4416 15.5437 58.8932 15.6498 54.4445 15.6498ZM46.2884 13.1034C48.3539 13.5278 51.1609 13.5809 54.4445 13.5809C57.781 13.5809 60.535 13.5278 62.6005 13.1034C60.7469 11.3528 57.6751 10.2387 54.4445 10.2387C51.2138 10.2387 48.195 11.2997 46.2884 13.1034Z" fill="#FDC689"/>
<path d="M74.5167 15.6498C70.1209 15.6498 66.5196 15.5968 64.0833 14.6419L62.8652 14.1644L63.6067 13.0504C65.6722 10.0265 69.8561 8.1167 74.5167 8.1167C79.1773 8.1167 83.3613 10.0265 85.4268 13.0504L86.1682 14.1644L84.9501 14.6419C82.5139 15.5437 78.9655 15.6498 74.5167 15.6498ZM66.3607 13.1034C68.4262 13.5278 71.2331 13.5809 74.5167 13.5809C77.8533 13.5809 80.6073 13.5278 82.6728 13.1034C80.8191 11.3528 77.7474 10.2387 74.5167 10.2387C71.2861 10.2387 68.2143 11.2997 66.3607 13.1034Z" fill="#FDC689"/>
<path d="M39.5623 32.4669C38.1324 32.4669 36.9143 31.4589 36.6495 30.0266L35.3784 23.0239C35.2725 22.4404 35.4313 21.8568 35.7491 21.4324C36.0669 20.955 36.5965 20.6897 37.1791 20.6367C43.6933 19.947 50.2605 19.5226 56.7748 19.3104C61.912 19.1513 67.1552 19.1513 72.2395 19.3104C78.7537 19.5226 85.3209 19.947 91.8351 20.6367C92.4177 20.6897 92.8944 21.008 93.2651 21.4324C93.5829 21.9099 93.7418 22.4934 93.6358 23.0239L92.3648 30.0266C92.1 31.565 90.723 32.6261 89.1341 32.4669C72.875 30.9284 56.0863 30.9284 39.8271 32.4669C39.7212 32.4669 39.6153 32.4669 39.5623 32.4669ZM37.4439 22.7587L38.7149 29.7083C38.8209 30.1327 39.1916 30.451 39.6682 30.3979C56.0863 28.8064 72.9809 28.8064 89.3989 30.3979C89.8756 30.451 90.2463 30.1327 90.3522 29.7083L91.6233 22.7587C85.215 22.069 78.6478 21.6446 72.2395 21.4324C67.1552 21.2733 61.965 21.2733 56.8807 21.4324C50.4194 21.6446 43.8522 22.069 37.4439 22.7587Z" fill="#FDC689"/>
<path d="M36.7552 22.9709C36.4375 22.9709 36.1727 22.8648 35.9608 22.5995C35.5901 22.1751 35.643 21.4855 36.0667 21.1141L37.3378 20C37.7615 19.6287 38.45 19.6817 38.8207 20.1061C39.1915 20.5305 39.1385 21.2202 38.7148 21.5916L37.4437 22.7056C37.2319 22.8648 36.9671 22.9709 36.7552 22.9709Z" fill="#FDC689"/>
<path d="M92.2587 22.9709C91.9939 22.9709 91.7821 22.8648 91.5702 22.7056L90.2992 21.5916C89.8755 21.2202 89.8225 20.5305 90.1932 20.1061C90.564 19.6817 91.2525 19.6287 91.6761 20L92.9472 21.1141C93.3709 21.4855 93.4239 22.1751 93.0531 22.5995C92.8413 22.8648 92.5235 22.9709 92.2587 22.9709Z" fill="#FDC689"/>
<path d="M90.8289 22.6526C90.7759 22.6526 90.723 22.6526 90.617 22.6526C90.0345 22.5465 89.6637 22.016 89.7697 21.4324L89.9285 20.6366C90.0345 19.8939 89.7697 19.1512 89.1871 18.7268L83.8909 14.5358C83.4143 14.1645 83.3613 13.5279 83.7321 13.0504C84.1028 12.573 84.7383 12.5199 85.215 12.8913L90.5111 17.0823C91.6763 18.0372 92.2588 19.5226 91.994 21.008L91.8352 21.8038C91.7822 22.2812 91.3585 22.6526 90.8289 22.6526Z" fill="#FDC689"/>
<path d="M38.1323 22.6525C37.6556 22.6525 37.179 22.2811 37.0731 21.8037L36.9142 21.0079C36.6494 19.5225 37.232 17.9841 38.3971 17.0822L43.6932 12.8912C44.1699 12.5199 44.8054 12.626 45.1762 13.0504C45.5469 13.5278 45.441 14.1644 45.0173 14.5358L39.7211 18.7268C39.1386 19.2042 38.8738 19.8939 38.9797 20.6366L39.1386 21.4323C39.2445 22.0159 38.8738 22.5464 38.2912 22.6525C38.2912 22.6525 38.2382 22.6525 38.1323 22.6525Z" fill="#FDC689"/>
</svg>
